<svg width="96" height="93" fill="none" xmlns="http://www.w3.org/2000/svg"><path d="M21.973 10.388h37.342V65.17H21.973V10.388z" fill="#FFB938"/><path d="M58.846 10.388h35.748v54.497H58.847V10.388z" fill="#FFE645"/><path d="M87.094 10.388h7.5v35.767h-7.5V10.388z" fill="#F5D60C"/><path d="M80.178 24.838l6.919-6.697-13.839.002-6.916 6.695h13.836z" fill="#365DCA"/><path d="M66.342 24.838h13.836v13.387H66.342V24.838z" fill="#fff"/><path d="M80.178 38.225l6.92-6.698-.001-13.386-6.919 6.697v13.387z" fill="#FFB938"/><path d="M58.846 46.155h35.748V65.17H58.847V46.155z" fill="#FFF6DB"/><path d="M87.094 46.155h7.5V65.17h-7.5V46.155z" fill="#F7ECCB"/><path d="M40.588 1.362h8.774v37.59h-8.774V1.362z" fill="#86DB7B"/><path d="M45.05 1.362h4.312v37.59h-4.313V1.362z" fill="#6DD45F"/><path d="M16.612 76.006c0 2.87-3.404 5.198-7.603 5.198S1.42 78.79 1.42 75.361c0-2.871-.014-10.476-.014-10.476h15.206v11.12z" fill="#FFB938"/><path d="M9.01 15.887c4.198 0 7.602 1.81 7.602 4.044v55.43c0-2.234-3.404-4.045-7.603-4.045-.441 0-.873.021-1.294.06v-55.43c.421-.038.853-.06 1.294-.06z" fill="#FFE645"/><path d="M10.303 11.803c-4.199 0-8.897 3.13-8.897 8.295V75.36c0-8.819 8.897-8.545 8.897-8.545V11.803z" fill="#FFF6DB"/><path d="M31.847 86.438c0 2.87-3.403 5.199-7.602 5.2-4.2 0-7.59-2.414-7.59-5.843 0-2.87-.016-10.476-.016-10.476l15.206-.002.002 11.12z" fill="#FFB938"/><path d="M24.234 26.32c4.199 0 7.603 1.81 7.603 4.043l.01 55.43c0-2.234-3.405-4.044-7.604-4.043-.441 0-.873.021-1.294.06l-.01-55.43c.421-.038.853-.06 1.295-.06z" fill="#FFE645"/><path d="M25.527 22.236c-4.199 0-8.896 3.132-8.896 8.296l.01 55.263c-.002-8.818 8.895-8.546 8.895-8.546l-.009-55.013z" fill="#FFF6DB"/><path d="M45.028 91.638h42.35v-34.93l-42.35 34.93zm35.52-6.609h-16.98l16.98-14.004v14.004z" fill="#FFE645"/><path d="M80.49 62.389v8.684l.058-.048v14.004h-.058v6.609h6.888v-34.93l-6.888 5.68z" fill="#F5D60C"/><path d="M94.594 9.026H50.768V1.362C50.768.61 50.138 0 49.362 0h-8.774c-.776 0-1.406.61-1.406 1.362v7.664h-17.21c-.776 0-1.405.61-1.405 1.362v11.713a10.727 10.727 0 00-2.549 1.834v-4.004c0-2.47-2.536-4.498-6.308-5.17v-2.958c0-.753-.63-1.363-1.407-1.363-2.49 0-5.02.928-6.945 2.545C1.193 14.805 0 17.33 0 20.098v5.707c0 1.762 2.813 1.762 2.813 0v-5.707c0-2.982 2.29-6.176 6.084-6.817V65.54c-2.207.267-4.46 1.122-6.079 2.629-.003-1.855-.006-35.124-.006-35.124 0-1.762-2.812-1.762-2.812 0V75.36c0 .076.008.15.02.224.139 3.995 3.955 6.982 8.99 6.982 2.437 0 4.617-.672 6.223-1.78l.001 5.008c0 4.604 4.754 7.205 9.01 7.205 4.52 0 9.009-2.466 9.009-7.207l-.004-19.261h40.048L44.117 90.6c-.976.804-.37 2.399.911 2.399h42.35c.777 0 1.407-.61 1.407-1.362v-6.609c0-1.761-2.813-1.761-2.813 0v5.246H48.85l37.123-30.619v17.858c0 1.761 2.813 1.761 2.813 0V66.532h5.809c.777 0 1.406-.61 1.406-1.362V10.388c0-.752-.63-1.362-1.406-1.362zm-1.406 2.725v33.042H60.252V11.75h32.934zM47.956 2.725V37.59h-5.961v-3.482h1.02c1.819 0 1.819-2.724 0-2.724h-1.02v-3.57h2.333c1.818 0 1.818-2.725 0-2.725h-2.333v-3.57h1.02c.777 0 1.407-.61 1.407-1.362 0-.752-.63-1.362-1.406-1.362h-1.021v-3.57h2.333c1.818 0 1.818-2.725 0-2.725h-2.333V8.93h1.02c1.819 0 1.819-2.724 0-2.724h-1.02V2.725h5.96zM22.21 24.3a7.578 7.578 0 011.91-.585l.009 52.258c-1.567.19-4.099.786-6.079 2.63l-.006-3.284-.007-44.787c0-2.44 1.535-5.023 4.173-6.232zm8.229 57.517a9.256 9.256 0 00-.144-.078c-1.613-.858-3.719-1.336-5.941-1.351v-1.694c.673-.09 1.126-.083 1.137-.083.88-.057 1.364-.511 1.45-1.362l-.008-49.26c1.864.446 3.497 1.361 3.497 2.375l.008 51.453zM15.205 19.931v51.435c-1.567-.871-3.684-1.396-6.085-1.412V68.26a8.404 8.404 0 011.138-.082c.88-.057 1.364-.511 1.45-1.362v-49.27c2.143.497 3.497 1.527 3.497 2.385zm0 56.075c0 2.08-2.838 3.836-6.197 3.836-3.524 0-6.182-1.927-6.182-4.481 0-2.588.968-5.038 3.482-6.276v2.29c.1.892.613 1.344 1.538 1.357 1.954-.178 4.114.034 5.862.963 1.008.536 1.579 1.217 1.497 2.31zm9.038 14.27h-.001c-3.524 0-6.182-1.927-6.182-4.481 0-2.587.967-5.038 3.481-6.276v2.29c.1.892.614 1.344 1.539 1.357 2.385-.218 7.474.153 7.36 3.272 0 2.08-2.838 3.837-6.197 3.837zm9-59.913c0-2.453-2.546-4.492-6.31-5.169v-2.958c-.081-.83-.55-1.285-1.407-1.362a10.5 10.5 0 00-2.148.228V11.75h15.803v27.2c0 .753.63 1.363 1.406 1.363h8.774c.777 0 1.406-.61 1.406-1.362V11.75h6.672v52.057H33.25l-.006-33.444zm54.724 25.108a1.442 1.442 0 00-1.501.199L76.6 63.807H60.253v-16.29h32.934v16.29h-4.402v-7.1a1.36 1.36 0 00-.817-1.236z" fill="#060606"/><path d="M67.001 39.038h12.957c.37 0 .735-.147.996-.4l6.479-6.272c.264-.256.412-.602.412-.964l-.002-12.534c0-.737-.645-1.362-1.406-1.362l-12.96.001c-.372 0-.73.144-.993.399l-6.476 6.268a1.357 1.357 0 00-.413.965v12.536c0 .753.63 1.363 1.406 1.363zM68.407 26.5h10.145v9.812H68.407V26.5zm12.958 7.887v-8.684l3.667-3.55v8.684l-3.667 3.55zM74.06 20.232l8.979-.001-3.664 3.546h-8.978l3.663-3.545zm-.408 36.819h-4.66c-1.817 0-1.817 2.725 0 2.725h4.66c1.819 0 1.819-2.725 0-2.725zm7.28-5.421h-11.94c-1.817 0-1.817 2.724 0 2.724h11.94c1.819 0 1.819-2.724 0-2.724zm-1.296 18.357L62.657 83.992c-.975.804-.37 2.4.912 2.4h16.979c.777 0 1.406-.61 1.406-1.363V71.025c0-1.036-1.35-1.836-2.318-1.038zm-.494 13.68H67.39l11.752-9.693v9.693z" fill="#060606"/></svg>