<svg width="42" height="42" fill="none" xmlns="http://www.w3.org/2000/svg"><path d="M21 41.342c11.235 0 20.342-9.107 20.342-20.342S32.235.658 21 .658.658 9.765.658 21 9.765 41.342 21 41.342z" fill="#47B0D3"/><path d="M23.806 40.64c-11.236 0-20.343-9.106-20.343-20.34 0-9.023 5.875-16.673 14.008-19.336C7.92 2.634.658 10.97.658 21 .658 32.235 9.765 41.342 21 41.342c2.212 0 4.34-.354 6.335-1.007-1.147.2-2.326.306-3.53.306z" fill="#3298BA"/><path d="M15.474 32.925l-1.616-9.693L30.82 9.501 15.474 32.925z" fill="#B2B2B2"/><path d="M17.493 24.444l-2.02 8.48L30.82 9.502 17.493 24.444z" fill="#CCC"/><path d="M17.493 24.444L30.82 9.5l-1.176 20.003a.404.404 0 01-.574.342l-11.577-5.402zM30.82 9.5L8.207 20.028a.404.404 0 00.009.736l5.642 2.469L30.82 9.5z" fill="#E5E5E5"/><path d="M40.247 12.587a20.928 20.928 0 00-4.764-6.794.658.658 0 10-.907.953c3.94 3.752 6.109 8.815 6.109 14.254 0 10.854-8.83 19.685-19.685 19.685-10.854 0-19.685-8.83-19.685-19.685 0-10.854 8.83-19.685 19.685-19.685 3.965 0 7.787 1.174 11.053 3.394a.658.658 0 00.74-1.088A20.893 20.893 0 0021 0 20.862 20.862 0 006.15 6.15 20.863 20.863 0 000 21c0 5.61 2.184 10.883 6.15 14.85A20.862 20.862 0 0021 42c5.61 0 10.883-2.184 14.85-6.15A20.862 20.862 0 0042 21c0-2.925-.59-5.755-1.753-8.413z" fill="#000"/><path d="M31.477 9.483a.664.664 0 00-.934-.579l-12.647 5.888a.658.658 0 00.555 1.192l7.801-3.631-3.793 3.07-8.704 7.046-4.76-2.083 6.67-3.105a.658.658 0 00-.554-1.193L7.93 19.431a1.063 1.063 0 00.022 1.935l5.316 2.326 1.557 9.34c.096.578.878.743 1.199.253l4.416-6.74 8.352 3.897c.669.312 1.465-.165 1.508-.9L31.477 9.54a.584.584 0 000-.056zM19.964 24.87l-1.392-.65 6.847-7.677-.99 1.512-4.465 6.815zm-2.018.51l1.29.602-2.252 3.436.962-4.038zm6.99-10.27l-7.934 8.895a.665.665 0 00-.149.285l-1.266 5.316-1.017-6.105 10.366-8.392zm4.073 13.981l-7.84-3.66 8.85-13.508-1.01 17.168z" fill="#000"/></svg>