<svg width="42" height="42" fill="none" xmlns="http://www.w3.org/2000/svg"><path d="M36.586 41.18H5.414A4.594 4.594 0 01.82 36.586V5.414A4.594 4.594 0 015.414.82h31.172a4.594 4.594 0 014.594 4.594v31.172a4.594 4.594 0 01-4.594 4.594z" fill="#2D82C8"/><path d="M7.744 13.371h3.56a1.27 1.27 0 011.21.887c.358 1.126 1.067 3.134 2.06 4.883.807 1.42 1.786 2.61 2.507 3.399a.588.588 0 001.02-.398v-5.137a3.6 3.6 0 00-.675-2.1l-.349-.486a.662.662 0 01.538-1.048h4.978c.449 0 .813.364.813.814v6.585c0 .428.442.712.831.534l.339-.154a.492.492 0 00.154-.111 21.852 21.852 0 004.102-6.2l.372-.848c.166-.377.538-.62.95-.62l3.514.005c.66 0 1.08.704.77 1.285L32.813 17.7c-.21.393-.444.773-.7 1.138l-1.9 2.708a1.187 1.187 0 00.153 1.54l1.391 1.325a17.104 17.104 0 012.793 3.456l.416.68a.953.953 0 01-.813 1.45H31.12a2.273 2.273 0 01-1.63-.688l-3.033-3.12a4.402 4.402 0 00-2.212-1.23.69.69 0 00-.839.674v3.065c0 .718-.581 1.299-1.299 1.299a11.59 11.59 0 01-7.04-2.384 20.847 20.847 0 01-7.4-10.905l-.665-2.357a.77.77 0 01.742-.979z" fill="#fff"/><path d="M34.154 30.816H31.12a3.11 3.11 0 01-2.217-.936l-3.034-3.12a3.57 3.57 0 00-1.642-.963v2.9c0 1.169-.951 2.12-2.12 2.12-2.709 0-5.386-.907-7.538-2.553a21.73 21.73 0 01-2.308-2.04.82.82 0 111.171-1.15 20.01 20.01 0 002.133 1.887 10.828 10.828 0 006.543 2.215.479.479 0 00.478-.479v-3.065c0-.46.206-.889.564-1.177a1.504 1.504 0 011.27-.299c1.003.22 1.91.725 2.625 1.46l3.034 3.12c.272.28.651.44 1.041.44h3.034c.02 0 .078 0 .116-.068a.123.123 0 00-.003-.134l-.416-.68a16.292 16.292 0 00-2.658-3.29L29.8 23.68a1.995 1.995 0 01-.259-2.606l1.9-2.707c.237-.337.455-.691.648-1.054l1.624-3.038c.006-.01.014-.026-.001-.052-.016-.026-.034-.026-.046-.026l-3.515-.004a.215.215 0 00-.196.129l-.373.848a22.617 22.617 0 01-4.255 6.432 1.308 1.308 0 01-.412.295l-.338.154c-.438.2-.94.164-1.346-.096a1.402 1.402 0 01-.646-1.184V14.19h-4.662l.168.235c.543.756.83 1.648.83 2.579v5.137a1.4 1.4 0 01-.899 1.313 1.398 1.398 0 01-1.547-.362c-.72-.787-1.759-2.041-2.615-3.547-1.043-1.835-1.781-3.946-2.129-5.04a.449.449 0 00-.429-.315H7.81l.646 2.293a20.072 20.072 0 001.537 3.864.82.82 0 11-1.454.761 21.706 21.706 0 01-1.662-4.18l-.664-2.357c-.137-.483-.04-.99.263-1.391.303-.4.765-.63 1.267-.63h3.56c.915 0 1.716.586 1.993 1.459.328 1.033 1.023 3.02 1.991 4.725a18.029 18.029 0 001.994 2.794v-4.524c0-.586-.18-1.147-.522-1.622l-.348-.485a1.484 1.484 0 011.204-2.347h4.978c.9 0 1.634.733 1.634 1.634v6.192a20.974 20.974 0 003.854-5.867l.372-.849a1.855 1.855 0 011.7-1.11h.001l3.515.005c.6 0 1.143.308 1.451.823a1.68 1.68 0 01.04 1.669l-1.623 3.038c-.225.42-.477.832-.752 1.222l-1.9 2.708a.364.364 0 00.047.475l1.392 1.325a17.932 17.932 0 012.926 3.622l.416.68a1.775 1.775 0 01-1.512 2.698z" fill="#000"/><path d="M10.823 24.067a.82.82 0 01-.667-.343l.666-.478-.67.473-.005-.008a.82.82 0 011.333-.955l.009.012a.82.82 0 01-.666 1.299zm5.982 13.996H10.12a.82.82 0 010-1.641h6.685a.82.82 0 110 1.64zm3.733 0h-.01a.82.82 0 010-1.641h.01a.82.82 0 010 1.64z" fill="#000"/><path d="M36.586 42H5.414A5.42 5.42 0 010 36.586V5.414A5.42 5.42 0 015.414 0h31.172A5.42 5.42 0 0142 5.414v31.172A5.42 5.42 0 0136.586 42zM5.414 1.64a3.778 3.778 0 00-3.773 3.774v31.172a3.778 3.778 0 003.773 3.773h31.172a3.778 3.778 0 003.773-3.773V5.414a3.778 3.778 0 00-3.773-3.773H5.414z" fill="#000"/></svg>