<svg width="50" height="42" fill="none" xmlns="http://www.w3.org/2000/svg"><path d="M47.138 40.494h-20.58a2.12 2.12 0 01-2.12-2.12V26.9a1.6 1.6 0 011.6-1.6h21.621a1.6 1.6 0 011.6 1.6v11.472a2.12 2.12 0 01-2.12 2.121zM23.442 16.699H2.862A2.12 2.12 0 01.74 14.578V3.106a1.6 1.6 0 011.6-1.6h21.621a1.6 1.6 0 011.6 1.6v11.472a2.12 2.12 0 01-2.12 2.12z" fill="#FAF0B0"/><path d="M47.66 25.302h-2.965a1.6 1.6 0 011.6 1.6v11.471a2.12 2.12 0 01-2.121 2.121h2.964a2.12 2.12 0 002.12-2.12V26.9a1.6 1.6 0 00-1.599-1.6zM23.962 1.506h-2.964a1.6 1.6 0 011.6 1.6v11.472a2.12 2.12 0 01-2.12 2.12h2.963a2.12 2.12 0 002.121-2.12V3.106a1.6 1.6 0 00-1.6-1.6z" fill="#F8E883"/><path d="M15.971 29.347a2.2 2.2 0 10-4.28-1.012 2.2 2.2 0 004.28 1.012zm21.434-15.225a2.2 2.2 0 10-3.11-3.11 2.2 2.2 0 003.11 3.11z" fill="#92E0C4"/><path d="M47.66 24.56H26.036c-1.29 0-2.34 1.05-2.34 2.341v11.472a2.865 2.865 0 002.861 2.862h.847a.741.741 0 100-1.482h-.847c-.76 0-1.38-.619-1.38-1.38V27.39l9.588 8.284a3.18 3.18 0 002.082.77 3.18 3.18 0 002.083-.77l9.587-8.284v10.983c0 .761-.62 1.38-1.38 1.38H30.369a.741.741 0 100 1.482h16.77A2.865 2.865 0 0050 38.373V26.901c0-1.29-1.05-2.34-2.34-2.34zm-9.698 9.993a1.712 1.712 0 01-2.227 0L25.9 26.055a.853.853 0 01.137-.012H47.66c.047 0 .093.004.138.012l-9.835 8.498zM26.303 14.578V3.106c0-1.29-1.05-2.341-2.34-2.341H2.34C1.05.765 0 1.815 0 3.105v11.473a2.867 2.867 0 002.368 2.82.738.738 0 00.248.042h.246a.741.741 0 000-1.482c-.761 0-1.38-.62-1.38-1.38V3.595l9.587 8.284a3.18 3.18 0 002.083.769 3.18 3.18 0 002.082-.77l9.587-8.283v10.983c0 .76-.619 1.38-1.38 1.38H5.582a.741.741 0 000 1.482h17.86a2.865 2.865 0 002.862-2.862zm-12.038-3.82a1.712 1.712 0 01-2.227 0l-9.835-8.5a.854.854 0 01.138-.012h21.621c.047 0 .093.005.138.012l-9.835 8.498zm14.713-1.131c1.511.264 2.949.867 4.188 1.75a2.944 2.944 0 003.355 4.05 10.16 10.16 0 01.79 6.06.74.74 0 101.46.255c.42-2.4.094-4.814-.937-7.003a2.933 2.933 0 00.962-2.174 2.943 2.943 0 00-2.94-2.94c-.663 0-1.275.22-1.767.591a11.76 11.76 0 00-4.856-2.05.741.741 0 00-.255 1.461zm6.878 1.48a1.46 1.46 0 011.458 1.458 1.46 1.46 0 01-1.458 1.459 1.46 1.46 0 01-1.459-1.459 1.46 1.46 0 011.459-1.458zM20.714 32.135a10.271 10.271 0 01-4.325-1.85c.246-.429.387-.926.387-1.456a2.944 2.944 0 00-3.751-2.826 10.177 10.177 0 01-.645-5.728.741.741 0 10-1.46-.255 11.65 11.65 0 00.821 6.748 2.93 2.93 0 00-.846 2.061 2.943 2.943 0 004.448 2.524 11.75 11.75 0 005.116 2.242.741.741 0 00.255-1.46zm-6.878-1.847a1.46 1.46 0 01-1.459-1.459 1.46 1.46 0 011.459-1.458 1.46 1.46 0 011.458 1.458 1.46 1.46 0 01-1.458 1.459z" fill="#000"/></svg>