<svg width="46" height="45" fill="none" xmlns="http://www.w3.org/2000/svg"><g clip-path="url(#clip0)"><path d="M12.377 17.78a3.273 3.273 0 003.278-3.267 3.273 3.273 0 00-3.278-3.268A3.273 3.273 0 009.1 14.513a3.273 3.273 0 003.278 3.268zm21.246 0a3.273 3.273 0 003.278-3.267 3.273 3.273 0 00-3.278-3.268 3.273 3.273 0 00-3.278 3.268 3.273 3.273 0 003.278 3.268z" fill="#FEE5D0"/><path d="M12.475 11.511v6.607c0 4.49 3.703 8.13 8.27 8.13h4.412c4.567 0 8.27-3.64 8.27-8.13v-6.606H12.474z" fill="#FEE5D0"/><path d="M30.73 11.511v6.607c0 4.49-3.701 8.13-8.269 8.13h2.696c4.567 0 8.27-3.64 8.27-8.13v-6.606H30.73z" fill="#FEDABC"/><path d="M34.565 13.262h-23.13a1.046 1.046 0 01-1.055-1.036V8.468c0-.572.473-1.036 1.055-1.036h23.13c.583 0 1.055.464 1.055 1.036v3.758c0 .572-.472 1.036-1.055 1.036z" fill="#C5BEC6"/><path d="M34.565 7.432h-2.696c.583 0 1.056.464 1.056 1.036v3.758c0 .572-.473 1.037-1.056 1.037h2.696c.583 0 1.055-.464 1.055-1.037V8.468c0-.572-.472-1.036-1.055-1.036z" fill="#B5ADB7"/><path d="M26.604.74h-7.57c-3.57 0-6.465 2.843-6.465 6.35v.342h20.5v-.343c0-3.506-2.894-6.349-6.465-6.349z" fill="#A59DA7"/><path d="M26.604.74H23.91c3.57 0 6.465 2.843 6.465 6.35v.342h2.695v-.343c0-3.506-2.894-6.349-6.465-6.349z" fill="#968D97"/><path d="M18.926 19.016c0 .366.302.662.674.662a.668.668 0 00.674-.662.668.668 0 00-.674-.662.668.668 0 00-.674.662zm6.702 0c0 .366.301.662.674.662a.668.668 0 00.673-.662.668.668 0 00-.673-.662.668.668 0 00-.674.662z" fill="#000"/><path d="M39.116 42.427H6.884V26.072c0-1.797 1.483-3.254 3.313-3.254h25.606c1.83 0 3.313 1.457 3.313 3.254v16.355z" fill="#E3E0E4"/><path d="M35.803 22.818h-2.695c1.83 0 3.313 1.457 3.313 3.254v16.355h2.695V26.072c0-1.797-1.483-3.254-3.313-3.254z" fill="#D4CFD5"/><path d="M23 35.073c1.377 0 2.492-1.097 2.492-2.45 0-1.354-1.116-2.451-2.492-2.451-1.377 0-2.492 1.097-2.492 2.45 0 1.354 1.116 2.45 2.492 2.45z" fill="#FDFCFC"/><path d="M43.81 44.26H2.19c-.837 0-1.516-.667-1.516-1.49 0-.822.679-1.488 1.516-1.488h41.62c.837 0 1.516.667 1.516 1.489 0 .822-.679 1.489-1.516 1.489z" fill="#C48958"/><path d="M43.81 41.282h-2.695c.837 0 1.516.667 1.516 1.489 0 .822-.679 1.489-1.516 1.489h2.695c.837 0 1.516-.667 1.516-1.49 0-.822-.679-1.488-1.516-1.488z" fill="#BA8254"/><path d="M26.166 32.623c0-1.716-1.42-3.113-3.166-3.113s-3.166 1.396-3.166 3.113c0 1.716 1.42 3.112 3.166 3.112s3.166-1.396 3.166-3.112zm-4.985 0c0-.987.816-1.79 1.819-1.79 1.003 0 1.819.803 1.819 1.79 0 .986-.816 1.788-1.819 1.788-1.003 0-1.819-.802-1.819-1.788z" fill="#000"/><path d="M43.81 40.62h-4.02V26.072c0-2.159-1.788-3.915-3.987-3.915h-2.701a8.66 8.66 0 00.993-3.744c1.957-.232 3.48-1.892 3.48-3.9a3.915 3.915 0 00-1.281-2.895v-3.15c0-.936-.776-1.698-1.73-1.698h-.829c-.17-3.718-3.303-6.692-7.13-6.692H21.95a.668.668 0 00-.673.662c0 .366.301.662.674.662h4.652c3.085 0 5.613 2.38 5.782 5.368H13.252c.17-2.988 2.698-5.368 5.782-5.368h.222A.668.668 0 0019.93.74a.668.668 0 00-.674-.662h-.222c-3.827 0-6.96 2.974-7.13 6.692h-.469c-.953 0-1.729.762-1.729 1.698v3.187a.669.669 0 00-.17.126 3.898 3.898 0 00-1.11 2.732c0 1.954 1.464 3.61 3.38 3.888a8.66 8.66 0 00.994 3.756h-2.603c-2.199 0-3.987 1.756-3.987 3.915v5.54c0 .366.302.662.674.662a.668.668 0 00.674-.662v-5.54c0-1.43 1.184-2.592 2.639-2.592h25.606c1.455 0 2.64 1.163 2.64 2.592V40.62H7.557v-6.36a.668.668 0 00-.674-.663.668.668 0 00-.674.662v6.361H2.19c-1.208 0-2.19.965-2.19 2.15 0 1.187.982 2.152 2.19 2.152h41.62c1.208 0 2.19-.965 2.19-2.151s-.982-2.15-2.19-2.15zM34.1 17.074v-3.15h.465c.548 0 1.036-.252 1.353-.644a2.61 2.61 0 01-1.818 3.794zm-1.03-8.98h1.495c.21 0 .381.168.381.374v3.758a.379.379 0 01-.381.375h-3.411V8.094h1.915zm-5.9 4.507V8.094h2.636V12.6H27.17zm-3.983 0V8.094h2.636V12.6h-2.636zm-3.984 0V8.094h2.636V12.6h-2.636zm-3.983 0V8.094h2.636V12.6H15.22zm-4.166-4.133c0-.206.171-.374.381-.374h2.437V12.6h-2.437a.379.379 0 01-.381-.375V8.468zm-1.281 6.045c0-.437.107-.858.31-1.233.316.392.804.644 1.352.644h.367v3.13a2.617 2.617 0 01-2.03-2.541zm4.505 7.525a7.358 7.358 0 01-1.129-3.92v-4.194h19.603v4.194c0 1.39-.39 2.745-1.129 3.92a.66.66 0 00-.058.118H14.337a.672.672 0 00-.059-.118zm29.532 21.56H2.19a.836.836 0 01-.842-.827c0-.456.378-.827.842-.827h41.62c.465 0 .842.37.842.827a.836.836 0 01-.842.827z" fill="#000"/></g><defs><clipPath id="clip0"><path fill="#fff" d="M0 0h46v45H0z"/></clipPath></defs></svg>