<svg width="42" height="42" fill="none" xmlns="http://www.w3.org/2000/svg"><path d="M29.695 41.18h-17.39C5.962 41.18.82 36.038.82 29.695v-17.39C.82 5.962 5.962.82 12.305.82h17.39c6.343 0 11.485 5.142 11.485 11.485v17.39c0 6.343-5.142 11.485-11.485 11.485z" fill="#E68CBE"/><path d="M29.695 37.57h-17.39a7.875 7.875 0 01-7.875-7.875v-17.39a7.875 7.875 0 017.875-7.875h17.39a7.875 7.875 0 017.875 7.875v17.39a7.875 7.875 0 01-7.875 7.875z" fill="#fff"/><path d="M21 31.5c5.799 0 10.5-4.701 10.5-10.5S26.799 10.5 21 10.5 10.5 15.201 10.5 21 15.201 31.5 21 31.5z" fill="#FF5A5A"/><path d="M21 27.563a6.562 6.562 0 100-13.125 6.562 6.562 0 000 13.124z" fill="#fff"/><path d="M31.767 12.53a2.297 2.297 0 100-4.594 2.297 2.297 0 000 4.594z" fill="#FF5A5A"/><path d="M29.695 42h-17.39C5.52 42 0 36.48 0 29.695v-17.39C0 5.52 5.52 0 12.305 0h17.39C36.48 0 42 5.52 42 12.305v17.39C42 36.48 36.48 42 29.695 42zM12.305 1.64C6.425 1.64 1.64 6.426 1.64 12.306v17.39c0 5.88 4.784 10.664 10.664 10.664h17.39c5.88 0 10.664-4.784 10.664-10.664v-17.39c0-5.88-4.784-10.664-10.664-10.664h-17.39z" fill="#000"/><path d="M29.695 38.39h-4.949a.82.82 0 110-1.64h4.95a7.063 7.063 0 007.054-7.055v-17.39a7.063 7.063 0 00-7.055-7.055h-17.39a7.063 7.063 0 00-7.055 7.055v17.39a7.063 7.063 0 007.055 7.055h5.004a.82.82 0 110 1.64h-5.004c-4.795 0-8.696-3.9-8.696-8.695v-17.39c0-4.795 3.901-8.696 8.696-8.696h17.39c4.795 0 8.696 3.901 8.696 8.696v17.39c0 4.795-3.901 8.696-8.696 8.696z" fill="#000"/><path d="M21 38.39a.827.827 0 01-.58-.24.827.827 0 01-.24-.58c0-.215.087-.427.24-.58a.827.827 0 01.58-.24c.216 0 .427.088.58.24.153.153.24.365.24.58a.827.827 0 01-.24.58.827.827 0 01-.58.24zm-7.21-24.204a.82.82 0 01-.563-1.417l.037-.034a.82.82 0 011.122 1.198l-.032.03a.817.817 0 01-.563.223z" fill="#000"/><path d="M21 32.32c-6.242 0-11.32-5.078-11.32-11.32 0-1.959.508-3.889 1.47-5.583a.82.82 0 011.426.81A9.68 9.68 0 0011.32 21c0 5.337 4.343 9.68 9.68 9.68s9.68-4.343 9.68-9.68-4.343-9.68-9.68-9.68a9.565 9.565 0 00-4.433 1.073.82.82 0 01-.753-1.458A11.354 11.354 0 0121 9.68c6.242 0 11.32 5.078 11.32 11.32S27.242 32.32 21 32.32z" fill="#000"/><path d="M21 28.383c-4.07 0-7.383-3.312-7.383-7.383 0-4.07 3.312-7.383 7.383-7.383 4.07 0 7.383 3.312 7.383 7.383 0 4.07-3.312 7.383-7.383 7.383zm0-13.125A5.749 5.749 0 0015.258 21 5.749 5.749 0 0021 26.742 5.749 5.749 0 0026.742 21 5.749 5.749 0 0021 15.258zm10.767-1.908a3.12 3.12 0 01-3.118-3.117 3.12 3.12 0 013.118-3.117 3.12 3.12 0 013.117 3.117 3.12 3.12 0 01-3.117 3.118zm0-4.593a1.478 1.478 0 000 2.953 1.478 1.478 0 000-2.953z" fill="#000"/></svg>