<svg width="180" height="180" fill="none" xmlns="http://www.w3.org/2000/svg"><path d="M90 180c49.706 0 90-40.294 90-90S139.706 0 90 0 0 40.294 0 90s40.294 90 90 90z" fill="#88C5CC"/><path d="M21.094 106.875V45.128c0-1.758 1.132-2.94 2.812-2.94H139.22c1.682 0 2.812 1.18 2.812 2.94v61.747H21.094z" fill="#1E2C33"/><path d="M21.094 106.875v11.25c0 1.68 1.132 2.813 2.812 2.813H139.22c1.682 0 2.812-1.133 2.812-2.813v-11.25H21.094z" fill="#F5F5F5"/><path d="M136.406 49.219H26.719v52.031h109.687V49.219z" fill="#586874"/><path d="M97.031 120.938H66.094v12.656H97.03v-12.656z" fill="#E6E6E6"/><path d="M106.875 136.406a2.82 2.82 0 00-2.813-2.812h-45a2.82 2.82 0 00-2.812 2.812 2.821 2.821 0 002.813 2.813h44.999a2.821 2.821 0 002.813-2.813z" fill="#F5F5F5"/><path d="M81.563 116.719a2.812 2.812 0 100-5.625 2.812 2.812 0 000 5.625z" fill="#1E2C33"/><path d="M78.75 140.625h80.156v2.812c0 1.49-1.323 1.407-2.812 1.407H81.563c-1.487 0-2.813.083-2.813-1.407v-2.812z" fill="#F5F5F5"/><path d="M128.146 140.625s-.809 1.406-1.801 1.406h-12.62c-.997 0-1.803-1.406-1.803-1.406h16.224z" fill="#CCC"/><path d="M85.781 140.625V99.844c0-1.487 1.326-2.813 2.813-2.813h60.468c1.49 0 2.813 1.326 2.813 2.813v40.781H85.781z" fill="#1E2C33"/><path d="M147.656 102.656H90v37.969h57.656v-37.969z" fill="#586874"/><path d="M118.828 101.249a1.406 1.406 0 100-2.812 1.406 1.406 0 000 2.812z" fill="#CC584C"/></svg>