<svg width="42" height="42" fill="none" xmlns="http://www.w3.org/2000/svg"><path fill-rule="evenodd" clip-rule="evenodd" d="M21.11 4.102c9.227 0 16.704 7.477 16.704 16.703 0 9.226-7.477 16.703-16.703 16.703-2.812 0-5.557-.696-8.023-2.05l-1.158-.635-6.228 1.683 1.698-6.06-.706-1.203a16.618 16.618 0 01-2.286-8.438c0-9.226 7.477-16.703 16.703-16.703zm-9.6 34.233a19.89 19.89 0 009.6 2.454c11.038 0 19.985-8.947 19.985-19.984C41.095 9.767 32.148.82 21.111.82 10.073.82 1.126 9.767 1.126 20.805c0 3.684.998 7.135 2.738 10.099L.984 41.18l10.526-2.845z" fill="#fff"/><path fill-rule="evenodd" clip-rule="evenodd" d="M37.814 20.805c0-9.226-7.477-16.703-16.703-16.703-9.226 0-16.703 7.477-16.703 16.703 0 2.975.78 5.872 2.286 8.438l.706 1.203-1.698 6.06 6.228-1.683 1.159.636a16.616 16.616 0 008.022 2.049c9.226 0 16.703-7.477 16.703-16.703zm-21.469-.852c.752 1.301 2.064 2.764 3.276 3.703 1.465 1.134 3.762 2.624 4.51 1.963.352-.311 1.322-1.717 1.45-1.817.13-.1.56-.82 1.577-.327 1.015.493 3.55 1.75 3.55 1.75s.55.222.526 1.083c-.023.86-.06 1.08-.06 1.08s-.369 2.951-4.397 3.069c-1.823.053-3.934-.69-5.805-1.645-3.193-1.628-5.187-3.427-7.32-6.226-1.449-1.9-2.895-4.398-2.64-6.617.444-3.852 2.893-4.207 2.893-4.207s.222-.026 1.083-.009c.86.018 1.056.577 1.056.577s1.189 2.716 1.633 3.754c.444 1.038-.036 1.49-.142 1.615-.107.124-.746.878-1.074 1.216-.328.337-.25.804-.116 1.038z" fill="#2BB140"/><path fill-rule="evenodd" clip-rule="evenodd" d="M17.676 16.084a710.881 710.881 0 00-1.632-3.754s-.195-.56-1.056-.577c-.861-.018-1.083.01-1.083.01s-2.45.354-2.893 4.205c-.256 2.22 1.191 4.717 2.64 6.618 2.133 2.799 4.127 4.598 7.32 6.226 1.87.954 3.982 1.698 5.805 1.645 4.028-.118 4.396-3.069 4.396-3.069s.038-.22.061-1.08c.023-.861-.526-1.083-.526-1.083s-2.534-1.257-3.55-1.75c-1.016-.493-1.447.226-1.576.326-.13.101-1.1 1.507-1.452 1.818-.747.661-3.044-.829-4.51-1.963-1.211-.939-2.523-2.402-3.275-3.703-.134-.234-.213-.701.116-1.039.328-.337.967-1.091 1.074-1.215.106-.125.585-.577.141-1.616z" fill="#fff"/><path d="M35.822 6.093A20.67 20.67 0 0021.111 0 20.66 20.66 0 009.013 3.878a.82.82 0 10.955 1.334A19.032 19.032 0 0121.111 1.64c10.567 0 19.164 8.597 19.164 19.164 0 10.567-8.597 19.164-19.164 19.164-3.22 0-6.403-.814-9.207-2.353a.823.823 0 00-.608-.073L2.164 40.01l2.49-8.886a.82.82 0 00-.083-.636 19.146 19.146 0 01-2.624-9.684 19.03 19.03 0 013.57-11.143.82.82 0 10-1.333-.955A20.659 20.659 0 00.306 20.805a20.8 20.8 0 002.675 10.21L.194 40.958a.82.82 0 001.004 1.014l10.21-2.76a20.835 20.835 0 009.702 2.397 20.667 20.667 0 0014.712-6.093 20.668 20.668 0 006.093-14.711 20.67 20.67 0 00-6.093-14.712z" fill="#000"/><path d="M34.557 30.749a.82.82 0 001.138-.227 17.446 17.446 0 002.94-9.717 17.41 17.41 0 00-5.133-12.392 17.408 17.408 0 00-12.391-5.132A17.41 17.41 0 008.719 8.413a17.41 17.41 0 00-5.132 12.392c0 3.118.83 6.18 2.4 8.854l.529.902-1.604 5.723a.82.82 0 001.004 1.014l5.909-1.597.869.477a17.533 17.533 0 008.416 2.15c3.477 0 6.837-1.016 9.718-2.94a.82.82 0 10-.911-1.364 15.808 15.808 0 01-8.807 2.663 15.89 15.89 0 01-7.627-1.947l-1.159-.637a.822.822 0 00-.608-.072L6.88 35.337l1.309-4.67a.82.82 0 00-.083-.636L7.4 28.828a15.863 15.863 0 01-2.173-8.023c0-8.758 7.125-15.883 15.883-15.883s15.882 7.125 15.882 15.883c0 3.15-.92 6.196-2.663 8.806a.82.82 0 00.227 1.138z" fill="#000"/><path d="M18.113 18.285l.054-.063c.735-.825.55-1.794.264-2.46a735.208 735.208 0 00-1.628-3.743c-.163-.412-.706-1.063-1.798-1.086-.852-.017-1.132.007-1.198.015a.4.4 0 00-.02.002c-.125.019-3.08.497-3.59 4.925-.234 2.035.709 4.46 2.802 7.208 2.318 3.042 4.45 4.853 7.6 6.46 1.57.8 3.862 1.737 5.995 1.737.07 0 .139-.001.207-.003 2.397-.07 3.677-1.066 4.328-1.89.692-.873.836-1.734.857-1.884.014-.094.047-.394.068-1.173.03-1.093-.596-1.666-.999-1.848a657.802 657.802 0 00-3.54-1.745c-.65-.316-1.605-.496-2.466.438l-.012.014c-.117.101-.232.253-.581.72-.216.289-.645.864-.828 1.055-.386.028-1.676-.54-3.505-1.956-1.152-.893-2.383-2.283-3.064-3.46a.16.16 0 01-.009-.063c.282-.29.742-.824 1.063-1.2zm1.006 6.02c.546.423 1.618 1.212 2.654 1.737.49.249 1.981 1.005 2.9.192.255-.225.615-.698 1.096-1.342.14-.186.31-.414.376-.492.043-.04.078-.078.11-.113.148-.16.215-.234.544-.074.989.48 3.454 1.702 3.543 1.746.03.03.078.13.072.326-.018.68-.045.926-.05.972-.004.017-.002.007-.004.025a2.62 2.62 0 01-.565 1.146c-.638.762-1.66 1.169-3.041 1.209-1.846.054-3.96-.816-5.41-1.555-2.949-1.505-4.857-3.129-7.04-5.994-1.802-2.364-2.659-4.448-2.477-6.026.342-2.97 1.97-3.437 2.188-3.486.077-.005.337-.016.956-.003.197.004.293.057.322.088.041.093 1.198 2.735 1.63 3.745.215.505.082.653.019.725a.407.407 0 00-.03.034l-.048.055c-.474.555-.807.933-.991 1.122-.606.622-.548 1.484-.238 2.02.789 1.368 2.156 2.915 3.484 3.943zM6.98 7.494a.82.82 0 10-.552-1.427.82.82 0 00.552 1.427zm25.335 24.57a.82.82 0 101.212 1.105.82.82 0 00-1.212-1.105z" fill="#000"/></svg>